<?xml version="1.0" encoding="UTF-8" standalone="no"?>
<!-- Created with Inkscape (http://www.inkscape.org/) -->

<svg
   xmlns:dc="http://purl.org/dc/elements/1.1/"
   xmlns:cc="http://creativecommons.org/ns#"
   xmlns:rdf="http://www.w3.org/1999/02/22-rdf-syntax-ns#"
   xmlns:svg="http://www.w3.org/2000/svg"
   xmlns="http://www.w3.org/2000/svg"
   xmlns:xlink="http://www.w3.org/1999/xlink"
   xmlns:sodipodi="http://sodipodi.sourceforge.net/DTD/sodipodi-0.dtd"
   xmlns:inkscape="http://www.inkscape.org/namespaces/inkscape"
   width="120"
   height="240"
   id="svg2"
   version="1.1"
   inkscape:version="0.48.1 r9760"
   sodipodi:docname="clock.svg"
   inkscape:export-filename="/home/mario/Desktop/apps/clock.png"
   inkscape:export-xdpi="90"
   inkscape:export-ydpi="90">
  <defs
     id="defs4">
    <linearGradient
       id="linearGradient4965">
      <stop
         id="stop4967"
         offset="0"
         style="stop-color:#d58ee6;stop-opacity:1;" />
      <stop
         id="stop4969"
         offset="1"
         style="stop-color:#9928ad;stop-opacity:1;" />
    </linearGradient>
    <linearGradient
       id="linearGradient3844">
      <stop
         style="stop-color:#d58ee6;stop-opacity:1;"
         offset="0"
         id="stop3846" />
      <stop
         style="stop-color:#701d7f;stop-opacity:1;"
         offset="1"
         id="stop3848" />
    </linearGradient>
    <linearGradient
       id="linearGradient3831">
      <stop
         style="stop-color:#ffffff;stop-opacity:1;"
         offset="0"
         id="stop3833" />
      <stop
         style="stop-color:#e0e0e0;stop-opacity:1;"
         offset="1"
         id="stop3835" />
    </linearGradient>
    <linearGradient
       inkscape:collect="always"
       id="linearGradient3757">
      <stop
         style="stop-color:#ffffff;stop-opacity:1;"
         offset="0"
         id="stop3759" />
      <stop
         style="stop-color:#ffffff;stop-opacity:0;"
         offset="1"
         id="stop3761" />
    </linearGradient>
    <radialGradient
       inkscape:collect="always"
       xlink:href="#linearGradient3757"
       id="radialGradient3763"
       cx="20.007349"
       cy="963.83142"
       fx="20.007349"
       fy="963.83142"
       r="55"
       gradientUnits="userSpaceOnUse"
       gradientTransform="matrix(0.05010342,3.0841247,-2.8683403,0.04659782,2779.5941,837.74457)" />
    <radialGradient
       inkscape:collect="always"
       xlink:href="#linearGradient3831"
       id="radialGradient3837"
       cx="28.972729"
       cy="45.19939"
       fx="28.972729"
       fy="45.19939"
       r="47.125"
       gradientUnits="userSpaceOnUse"
       gradientTransform="matrix(-0.20430825,1.2905,-1.2612632,-0.19967957,97.427698,-1.3639099)" />
    <radialGradient
       inkscape:collect="always"
       xlink:href="#linearGradient3844"
       id="radialGradient3850"
       cx="74.5"
       cy="71.5"
       fx="74.5"
       fy="71.5"
       r="42.625"
       gradientUnits="userSpaceOnUse" />
    <radialGradient
       inkscape:collect="always"
       xlink:href="#linearGradient3757"
       id="radialGradient3888"
       gradientUnits="userSpaceOnUse"
       gradientTransform="matrix(0.05010342,3.0841247,-2.8683403,0.04659782,2779.5941,837.74457)"
       cx="20.007349"
       cy="963.83142"
       fx="20.007349"
       fy="963.83142"
       r="55" />
    <radialGradient
       inkscape:collect="always"
       xlink:href="#linearGradient3757"
       id="radialGradient4839"
       gradientUnits="userSpaceOnUse"
       gradientTransform="matrix(0.05010342,3.0841247,-2.8683403,0.04659782,2779.5941,837.74457)"
       cx="20.007349"
       cy="963.83142"
       fx="20.007349"
       fy="963.83142"
       r="55" />
    <radialGradient
       inkscape:collect="always"
       xlink:href="#linearGradient3844"
       id="radialGradient4841"
       gradientUnits="userSpaceOnUse"
       gradientTransform="translate(0,2.6171875e-6)"
       cx="74.5"
       cy="71.5"
       fx="74.5"
       fy="71.5"
       r="42.625" />
    <radialGradient
       inkscape:collect="always"
       xlink:href="#linearGradient3831"
       id="radialGradient4843"
       gradientUnits="userSpaceOnUse"
       gradientTransform="matrix(-0.20430825,1.2905,-1.2612632,-0.19967957,97.427699,-1.3639074)"
       cx="28.972729"
       cy="45.19939"
       fx="28.972729"
       fy="45.19939"
       r="47.125" />
    <radialGradient
       inkscape:collect="always"
       xlink:href="#linearGradient3757"
       id="radialGradient4881"
       gradientUnits="userSpaceOnUse"
       gradientTransform="matrix(0.05010342,3.0841247,-2.8683403,0.04659782,2779.5941,717.74457)"
       cx="56.272381"
       cy="968.77899"
       fx="56.272381"
       fy="968.77899"
       r="55" />
    <radialGradient
       inkscape:collect="always"
       xlink:href="#linearGradient3831"
       id="radialGradient4909"
       gradientUnits="userSpaceOnUse"
       gradientTransform="matrix(-0.20430825,1.2905,-1.2612632,-0.19967957,97.427699,810.99827)"
       cx="28.972729"
       cy="45.19939"
       fx="28.972729"
       fy="45.19939"
       r="47.125" />
    <radialGradient
       inkscape:collect="always"
       xlink:href="#linearGradient4965"
       id="radialGradient4914"
       gradientUnits="userSpaceOnUse"
       gradientTransform="translate(0,-120)"
       cx="74.853554"
       cy="191.3546"
       fx="74.853554"
       fy="191.3546"
       r="42.625" />
    <filter
       inkscape:collect="always"
       id="filter4961">
      <feGaussianBlur
         inkscape:collect="always"
         stdDeviation="2.2"
         id="feGaussianBlur4963" />
    </filter>
  </defs>
  <sodipodi:namedview
     id="base"
     pagecolor="#ffffff"
     bordercolor="#666666"
     borderopacity="1.0"
     inkscape:pageopacity="0.0"
     inkscape:pageshadow="2"
     inkscape:zoom="2.8284271"
     inkscape:cx="59.772038"
     inkscape:cy="116.69849"
     inkscape:document-units="px"
     inkscape:current-layer="layer1"
     showgrid="false"
     inkscape:window-width="1766"
     inkscape:window-height="832"
     inkscape:window-x="127"
     inkscape:window-y="129"
     inkscape:window-maximized="0" />
  <metadata
     id="metadata7">
    <rdf:RDF>
      <cc:Work
         rdf:about="">
        <dc:format>image/svg+xml</dc:format>
        <dc:type
           rdf:resource="http://purl.org/dc/dcmitype/StillImage" />
        <dc:title></dc:title>
      </cc:Work>
    </rdf:RDF>
  </metadata>
  <g
     inkscape:label="Ebene 1"
     inkscape:groupmode="layer"
     id="layer1"
     transform="translate(0,-812.36218)">
    <path
       sodipodi:type="arc"
       style="fill:url(#radialGradient4914);fill-opacity:1.0;stroke:#ffffff;stroke-width:0.25000000000000000;stroke-opacity:1"
       id="path3772"
       sodipodi:cx="74.5"
       sodipodi:cy="71.5"
       sodipodi:rx="42.5"
       sodipodi:ry="42.5"
       d="m 117,71.5 a 42.5,42.5 0 1 1 -85,0 42.5,42.5 0 1 1 85,0 z"
       transform="translate(-14.5,920.86218)" />
    <path
       inkscape:connector-curvature="0"
       style="fill:url(#radialGradient4909);fill-opacity:1;stroke:#000000;stroke-width:0.25;stroke-opacity:1"
       d="m 60,945.36218 c -25.957384,0 -47,21.04262 -47,47 0,25.95742 21.042616,47.00002 47,47.00002 25.957384,0 47,-21.0426 47,-47.00002 0,-25.95738 -21.042616,-47 -47,-47 z m 0,4.5 c 23.472102,0 42.5,19.0279 42.5,42.5 0,23.47212 -19.027898,42.50002 -42.5,42.50002 -23.472102,0 -42.5,-19.0279 -42.5,-42.50002 0,-23.4721 19.027898,-42.5 42.5,-42.5 z"
       id="path3826" />
    <path
       style="fill:#ffffff;fill-opacity:1;stroke:#ffffff;stroke-width:0.25;stroke-opacity:1"
       d="m 60,958.48718 c -0.690386,3e-5 -1.250045,0.55971 -1.25,1.25 -2e-6,0.69039 0.55962,1.25002 1.25,1.25 0.690299,2e-5 1.249992,-0.55961 1.25,-1.25 3.8e-5,-0.69034 -0.559623,-1.25003 -1.25,-1.25 z m -16.46875,4.375 c -0.161139,0.02 -0.319283,0.07 -0.46875,0.15625 -0.597876,0.34522 -0.813934,1.12097 -0.46875,1.71875 0.345194,0.5979 1.120873,0.81396 1.71875,0.46875 0.597826,-0.34513 0.813938,-1.12086 0.46875,-1.71875 -0.258854,-0.44841 -0.766583,-0.68498 -1.25,-0.625 z m 32.9375,0 c -0.483433,-0.06 -0.991171,0.17663 -1.25,0.625 -0.345195,0.59789 -0.129149,1.37358 0.46875,1.71875 0.597804,0.34517 1.373549,0.12914 1.71875,-0.46875 0.345201,-0.59783 0.12915,-1.37359 -0.46875,-1.71875 -0.149477,-0.0863 -0.307606,-0.13626 -0.46875,-0.15625 z m -44.5625,11.9375 c -0.483412,-0.06 -0.991127,0.17658 -1.25,0.625 -0.345166,0.59791 -0.129078,1.37365 0.46875,1.71875 0.597897,0.3452 1.373578,0.12915 1.71875,-0.46875 0.345167,-0.59781 0.129137,-1.37356 -0.46875,-1.71875 -0.149459,-0.0863 -0.307613,-0.13625 -0.46875,-0.15625 z m 56.1875,0 c -0.161129,0.02 -0.319304,0.07 -0.46875,0.15625 -0.597893,0.34519 -0.813964,1.12088 -0.46875,1.71875 0.345128,0.59783 1.120856,0.81393 1.71875,0.46875 0.59787,-0.34514 0.813964,-1.12088 0.46875,-1.71875 -0.258913,-0.44841 -0.766612,-0.68499 -1.25,-0.625 z M 27.375,991.11218 c -0.690348,-4e-5 -1.250024,0.55963 -1.25,1.25 3.3e-5,0.69039 0.559715,1.25005 1.25,1.25 0.690394,0 1.250022,-0.55962 1.25,-1.25 1.8e-5,-0.69031 -0.55962,-1.25 -1.25,-1.25 z m 65.25,0 c -0.690382,-10e-6 -1.250027,0.55962 -1.25,1.25 -2.5e-5,0.6903 0.559618,1.24999 1.25,1.25 0.690338,4e-5 1.250027,-0.55962 1.25,-1.25 -2.6e-5,-0.69039 -0.559711,-1.25005 -1.25,-1.25 z m -61.03125,16.31252 c -0.161142,0.02 -0.319278,0.07 -0.46875,0.1562 -0.597879,0.3451 -0.813956,1.1209 -0.46875,1.7188 0.345223,0.5979 1.120971,0.8139 1.71875,0.4687 0.597899,-0.3452 0.813959,-1.1209 0.46875,-1.7187 -0.258854,-0.4484 -0.766573,-0.685 -1.25,-0.625 z m 56.8125,0 c -0.483432,-0.06 -0.991125,0.1766 -1.25,0.625 -0.345168,0.5978 -0.129133,1.3735 0.46875,1.7187 0.597833,0.3452 1.373583,0.1292 1.71875,-0.4687 0.345168,-0.5979 0.129083,-1.3737 -0.46875,-1.7188 -0.149471,-0.086 -0.307606,-0.1362 -0.46875,-0.1562 z m -44.5625,11.9375 c -0.483407,-0.06 -0.991111,0.1766 -1.25,0.625 -0.345228,0.5978 -0.129157,1.3735 0.46875,1.7187 0.597922,0.3452 1.373658,0.1291 1.71875,-0.4687 0.345195,-0.5979 0.12911,-1.3736 -0.46875,-1.7188 -0.149462,-0.086 -0.307614,-0.1362 -0.46875,-0.1562 z m 32.3125,0 c -0.161139,0.02 -0.319283,0.07 -0.46875,0.1562 -0.597866,0.3452 -0.813928,1.1209 -0.46875,1.7188 0.345178,0.5978 1.120884,0.8139 1.71875,0.4687 0.597866,-0.3452 0.813928,-1.1209 0.46875,-1.7187 -0.258883,-0.4484 -0.766583,-0.685 -1.25,-0.625 z M 60,1023.7372 c -0.690356,0 -1.25,0.5596 -1.25,1.25 0,0.6903 0.559644,1.25 1.25,1.25 0.690356,0 1.25,-0.5597 1.25,-1.25 0,-0.6904 -0.559644,-1.25 -1.25,-1.25 z"
       id="path3852"
       inkscape:connector-curvature="0" />
    <path
       style="fill:none;stroke:#ffffff;stroke-width:1.5;stroke-opacity:1"
       d="m 60.344887,991.10901 26.741992,0 c 0.525146,0 0.947917,0.42278 0.947917,0.94792 l 0,0.57904 c 0,0.52515 -0.422771,0.94792 -0.947917,0.94792 l -26.741992,0 c -0.525146,0 -0.947917,-0.42277 -0.947917,-0.94792 l 0,-0.57904 c 0,-0.52514 0.422771,-0.94792 0.947917,-0.94792 z"
       id="rect3880"
       inkscape:connector-curvature="0" />
    <path
       inkscape:connector-curvature="0"
       id="path3883"
       d="m 59.082827,992.81408 -11.355923,-24.2111 c -0.223002,-0.47545 -0.01976,-1.03774 0.455677,-1.26074 l 0.524239,-0.24589 c 0.475449,-0.223 1.037736,-0.0198 1.260738,0.45568 l 11.355923,24.21109 c 0.223002,0.47545 0.01977,1.03774 -0.455676,1.26074 l -0.524239,0.24589 c -0.47544,0.223 -1.037737,0.0198 -1.260739,-0.45567 z"
       style="fill:#ffffff;stroke:none" />
    <path
       style="fill:#ffffff;stroke:none"
       d="m 59.674007,994.15983 -12.52768,14.97217 c -0.246015,0.294 -0.64387,0.2961 -0.892048,0.012 l -0.273652,-0.3214 c -0.248179,-0.2915 -0.249944,-0.7628 -0.0039,-1.0568 L 58.5044,992.79362 c 0.246015,-0.29402 0.643868,-0.29608 0.892047,-0.005 l 0.273652,0.32135 c 0.248179,0.29145 0.249945,0.76277 0.0039,1.05679 z"
       id="path3885"
       inkscape:connector-curvature="0" />
    <path
       sodipodi:type="arc"
       style="fill:#a75bb7;fill-opacity:1;stroke:#ffffff;stroke-width:0.6388889;stroke-opacity:1"
       id="path3878"
       sodipodi:cx="59.573746"
       sodipodi:cy="61.133362"
       sodipodi:rx="8.1317282"
       sodipodi:ry="8.1317282"
       d="m 67.705474,61.133362 a 8.1317282,8.1317282 0 1 1 -16.263456,0 8.1317282,8.1317282 0 1 1 16.263456,0 z"
       transform="matrix(0.39130436,0,0,0.39130436,36.688533,968.44043)" />
    <g
       transform="translate(0,-120)"
       id="g4823">
      <path
         sodipodi:type="arc"
         style="fill:url(#radialGradient4841);fill-opacity:1;stroke:#ffffff;stroke-width:0.25;stroke-opacity:1"
         id="path4825"
         sodipodi:cx="74.5"
         sodipodi:cy="71.5"
         sodipodi:rx="42.5"
         sodipodi:ry="42.5"
         d="M 117,71.5 C 117,94.972102 97.972102,114 74.5,114 51.027898,114 32,94.972102 32,71.5 32,48.027898 51.027898,29 74.5,29 97.972102,29 117,48.027898 117,71.5 z"
         transform="translate(-14.5,920.86218)" />
      <path
         inkscape:connector-curvature="0"
         style="fill:url(#radialGradient4843);fill-opacity:1;stroke:#000000;stroke-width:0.25;stroke-opacity:1"
         d="m 60,13 c -25.957384,0 -47,21.042616 -47,47 0,25.957384 21.042616,47 47,47 25.957384,0 47,-21.042616 47,-47 C 107,34.042616 85.957384,13 60,13 z m 0,4.5 c 23.472102,0 42.5,19.027898 42.5,42.5 0,23.472102 -19.027898,42.5 -42.5,42.5 C 36.527898,102.5 17.5,83.472102 17.5,60 17.5,36.527898 36.527898,17.5 60,17.5 z"
         transform="translate(0,932.36218)"
         id="path4827" />
      <path
         style="fill:#ffffff;fill-opacity:1;stroke:#ffffff;stroke-width:0.25;stroke-opacity:1"
         d="m 60,958.48718 c -0.690386,3e-5 -1.250045,0.55971 -1.25,1.25 -2e-6,0.69039 0.55962,1.25002 1.25,1.25 0.690299,2e-5 1.249992,-0.55961 1.25,-1.25 3.8e-5,-0.69034 -0.559623,-1.25003 -1.25,-1.25 z m -16.46875,4.375 c -0.161139,0.02 -0.319283,0.07 -0.46875,0.15625 -0.597876,0.34522 -0.813934,1.12097 -0.46875,1.71875 0.345194,0.5979 1.120873,0.81396 1.71875,0.46875 0.597826,-0.34513 0.813938,-1.12086 0.46875,-1.71875 -0.258854,-0.44841 -0.766583,-0.68498 -1.25,-0.625 z m 32.9375,0 c -0.483433,-0.06 -0.991171,0.17663 -1.25,0.625 -0.345195,0.59789 -0.129149,1.37358 0.46875,1.71875 0.597804,0.34517 1.373549,0.12914 1.71875,-0.46875 0.345201,-0.59783 0.12915,-1.37359 -0.46875,-1.71875 -0.149477,-0.0863 -0.307606,-0.13626 -0.46875,-0.15625 z m -44.5625,11.9375 c -0.483412,-0.06 -0.991127,0.17658 -1.25,0.625 -0.345166,0.59791 -0.129078,1.37365 0.46875,1.71875 0.597897,0.3452 1.373578,0.12915 1.71875,-0.46875 0.345167,-0.59781 0.129137,-1.37356 -0.46875,-1.71875 -0.149459,-0.0863 -0.307613,-0.13625 -0.46875,-0.15625 z m 56.1875,0 c -0.161129,0.02 -0.319304,0.07 -0.46875,0.15625 -0.597893,0.34519 -0.813964,1.12088 -0.46875,1.71875 0.345128,0.59783 1.120856,0.81393 1.71875,0.46875 0.59787,-0.34514 0.813964,-1.12088 0.46875,-1.71875 -0.258913,-0.44841 -0.766612,-0.68499 -1.25,-0.625 z M 27.375,991.11218 c -0.690348,-4e-5 -1.250024,0.55963 -1.25,1.25 3.3e-5,0.69039 0.559715,1.25005 1.25,1.25 0.690394,0 1.250022,-0.55962 1.25,-1.25 1.8e-5,-0.69031 -0.55962,-1.25 -1.25,-1.25 z m 65.25,0 c -0.690382,-10e-6 -1.250027,0.55962 -1.25,1.25 -2.5e-5,0.6903 0.559618,1.24999 1.25,1.25 0.690338,4e-5 1.250027,-0.55962 1.25,-1.25 -2.6e-5,-0.69039 -0.559711,-1.25005 -1.25,-1.25 z m -61.03125,16.31252 c -0.161142,0.02 -0.319278,0.07 -0.46875,0.1562 -0.597879,0.3451 -0.813956,1.1209 -0.46875,1.7188 0.345223,0.5979 1.120971,0.8139 1.71875,0.4687 0.597899,-0.3452 0.813959,-1.1209 0.46875,-1.7187 -0.258854,-0.4484 -0.766573,-0.685 -1.25,-0.625 z m 56.8125,0 c -0.483432,-0.06 -0.991125,0.1766 -1.25,0.625 -0.345168,0.5978 -0.129133,1.3735 0.46875,1.7187 0.597833,0.3452 1.373583,0.1292 1.71875,-0.4687 0.345168,-0.5979 0.129083,-1.3737 -0.46875,-1.7188 -0.149471,-0.086 -0.307606,-0.1362 -0.46875,-0.1562 z m -44.5625,11.9375 c -0.483407,-0.06 -0.991111,0.1766 -1.25,0.625 -0.345228,0.5978 -0.129157,1.3735 0.46875,1.7187 0.597922,0.3452 1.373658,0.1291 1.71875,-0.4687 0.345195,-0.5979 0.12911,-1.3736 -0.46875,-1.7188 -0.149462,-0.086 -0.307614,-0.1362 -0.46875,-0.1562 z m 32.3125,0 c -0.161139,0.02 -0.319283,0.07 -0.46875,0.1562 -0.597866,0.3452 -0.813928,1.1209 -0.46875,1.7188 0.345178,0.5978 1.120884,0.8139 1.71875,0.4687 0.597866,-0.3452 0.813928,-1.1209 0.46875,-1.7187 -0.258883,-0.4484 -0.766583,-0.685 -1.25,-0.625 z M 60,1023.7372 c -0.690356,0 -1.25,0.5596 -1.25,1.25 0,0.6903 0.559644,1.25 1.25,1.25 0.690356,0 1.25,-0.5597 1.25,-1.25 0,-0.6904 -0.559644,-1.25 -1.25,-1.25 z"
         id="path4829"
         inkscape:connector-curvature="0" />
      <path
         style="fill:none;stroke:#ffffff;stroke-width:1.5;stroke-opacity:1"
         d="m 60.344887,991.10901 26.741992,0 c 0.525146,0 0.947917,0.42278 0.947917,0.94792 l 0,0.57904 c 0,0.52515 -0.422771,0.94792 -0.947917,0.94792 l -26.741992,0 c -0.525146,0 -0.947917,-0.42277 -0.947917,-0.94792 l 0,-0.57904 c 0,-0.52514 0.422771,-0.94792 0.947917,-0.94792 z"
         id="path4831"
         inkscape:connector-curvature="0" />
      <path
         inkscape:connector-curvature="0"
         id="path4833"
         d="m 59.082827,992.81408 -11.355923,-24.2111 c -0.223002,-0.47545 -0.01976,-1.03774 0.455677,-1.26074 l 0.524239,-0.24589 c 0.475449,-0.223 1.037736,-0.0198 1.260738,0.45568 l 11.355923,24.21109 c 0.223002,0.47545 0.01977,1.03774 -0.455676,1.26074 l -0.524239,0.24589 c -0.47544,0.223 -1.037737,0.0198 -1.260739,-0.45567 z"
         style="fill:#ffffff;stroke:none" />
      <path
         style="fill:#ffffff;stroke:none"
         d="m 59.674007,994.15983 -12.52768,14.97217 c -0.246015,0.294 -0.64387,0.2961 -0.892048,0.012 l -0.273652,-0.3214 c -0.248179,-0.2915 -0.249944,-0.7628 -0.0039,-1.0568 L 58.5044,992.79362 c 0.246015,-0.29402 0.643868,-0.29608 0.892047,-0.005 l 0.273652,0.32135 c 0.248179,0.29145 0.249945,0.76277 0.0039,1.05679 z"
         id="path4835"
         inkscape:connector-curvature="0" />
      <path
         sodipodi:type="arc"
         style="fill:#a75bb7;fill-opacity:1;stroke:#ffffff;stroke-width:0.6388889;stroke-opacity:1"
         id="path4837"
         sodipodi:cx="59.573746"
         sodipodi:cy="61.133362"
         sodipodi:rx="8.1317282"
         sodipodi:ry="8.1317282"
         d="m 67.705474,61.133362 c 0,4.491029 -3.640699,8.131728 -8.131728,8.131728 -4.49103,0 -8.131728,-3.640699 -8.131728,-8.131728 0,-4.49103 3.640698,-8.131728 8.131728,-8.131728 4.491029,0 8.131728,3.640698 8.131728,8.131728 z"
         transform="matrix(0.39130436,0,0,0.39130436,36.688533,968.44043)" />
    </g>
  </g>
</svg>
