<?xml version="1.0" encoding="UTF-8" standalone="no"?>
<!-- Created with Inkscape (http://www.inkscape.org/) -->

<svg
   xmlns:dc="http://purl.org/dc/elements/1.1/"
   xmlns:cc="http://creativecommons.org/ns#"
   xmlns:rdf="http://www.w3.org/1999/02/22-rdf-syntax-ns#"
   xmlns:svg="http://www.w3.org/2000/svg"
   xmlns="http://www.w3.org/2000/svg"
   xmlns:sodipodi="http://sodipodi.sourceforge.net/DTD/sodipodi-0.dtd"
   xmlns:inkscape="http://www.inkscape.org/namespaces/inkscape"
   width="120"
   height="240"
   id="svg2"
   version="1.1"
   inkscape:version="0.48.1 r9760"
   sodipodi:docname="Neues Dokument 1">
  <defs
     id="defs4">
    <filter
       inkscape:collect="always"
       id="filter3824">
      <feGaussianBlur
         inkscape:collect="always"
         stdDeviation="1.993751"
         id="feGaussianBlur3826" />
    </filter>
  </defs>
  <sodipodi:namedview
     id="base"
     pagecolor="#ffffff"
     bordercolor="#666666"
     borderopacity="1.0"
     inkscape:pageopacity="0.0"
     inkscape:pageshadow="2"
     inkscape:zoom="2"
     inkscape:cx="104.29351"
     inkscape:cy="75.925361"
     inkscape:document-units="px"
     inkscape:current-layer="layer1"
     showgrid="false"
     inkscape:window-width="1391"
     inkscape:window-height="911"
     inkscape:window-x="50"
     inkscape:window-y="24"
     inkscape:window-maximized="0" />
  <metadata
     id="metadata7">
    <rdf:RDF>
      <cc:Work
         rdf:about="">
        <dc:format>image/svg+xml</dc:format>
        <dc:type
           rdf:resource="http://purl.org/dc/dcmitype/StillImage" />
        <dc:title></dc:title>
      </cc:Work>
    </rdf:RDF>
  </metadata>
  <g
     inkscape:label="Ebene 1"
     inkscape:groupmode="layer"
     id="layer1"
     transform="translate(0,-812.36218)">
    <path
       inkscape:connector-curvature="0"
       id="path3790"
       d="m 21.90712,952.48712 0,14.70251 c 22.79776,0.0881 45.15297,13.41941 55.52427,33.91607 5.92014,9.4701 8.50424,19.4963 8.46508,29.3494 l 13.97853,0 C 99.39958,987.61116 64.75096,952.96254 21.90712,952.48712 z m 0,30.29609 0,13.58873 c 12.33481,0.1803 24.34851,7.39576 29.96194,18.48956 3.1475,5.0348 4.56557,10.3511 4.62239,15.5936 l 13.08746,0 C 69.10872,1004.3426 48.01963,983.2534 21.90712,982.78321 z m 9.35615,27.17739 c -6.1515,0 -11.13827,4.9868 -11.13827,11.1383 0,6.1515 4.98677,11.1383 11.13827,11.1383 6.15149,0 11.13827,-4.9868 11.13827,-11.1383 0,-6.1515 -4.98678,-11.1383 -11.13827,-11.1383 z"
       style="fill:#dc8100;fill-opacity:1;stroke:none;filter:url(#filter3824)" />
    <path
       style="fill:#ff9500;fill-opacity:1;stroke:none"
       d="m 21.90712,952.48712 0,14.70251 c 22.79776,0.0881 45.15297,13.41941 55.52427,33.91607 5.92014,9.4701 8.50424,19.4963 8.46508,29.3494 l 13.97853,0 C 99.39958,987.61116 64.75096,952.96254 21.90712,952.48712 z m 0,30.29609 0,13.58873 c 12.33481,0.1803 24.34851,7.39576 29.96194,18.48956 3.1475,5.0348 4.56557,10.3511 4.62239,15.5936 l 13.08746,0 C 69.10872,1004.3426 48.01963,983.2534 21.90712,982.78321 z m 9.35615,27.17739 c -6.1515,0 -11.13827,4.9868 -11.13827,11.1383 0,6.1515 4.98677,11.1383 11.13827,11.1383 6.15149,0 11.13827,-4.9868 11.13827,-11.1383 0,-6.1515 -4.98678,-11.1383 -11.13827,-11.1383 z"
       id="path2987"
       inkscape:connector-curvature="0" />
    <g
       id="g3832"
       transform="translate(0,-120.00002)">
      <path
         inkscape:connector-curvature="0"
         id="path3834"
         d="m 21.90712,952.48712 0,14.70251 c 22.79776,0.0881 45.15297,13.41941 55.52427,33.91607 5.92014,9.4701 8.50424,19.4963 8.46508,29.3494 l 13.97853,0 C 99.39958,987.61116 64.75096,952.96254 21.90712,952.48712 z m 0,30.29609 0,13.58873 c 12.33481,0.1803 24.34851,7.39576 29.96194,18.48956 3.1475,5.0348 4.56557,10.3511 4.62239,15.5936 l 13.08746,0 C 69.10872,1004.3426 48.01963,983.2534 21.90712,982.78321 z m 9.35615,27.17739 c -6.1515,0 -11.13827,4.9868 -11.13827,11.1383 0,6.1515 4.98677,11.1383 11.13827,11.1383 6.15149,0 11.13827,-4.9868 11.13827,-11.1383 0,-6.1515 -4.98678,-11.1383 -11.13827,-11.1383 z"
         style="fill:#8e5300;fill-opacity:1;stroke:none;filter:url(#filter3824)" />
      <path
         style="fill:#ff9500;fill-opacity:1;stroke:none"
         d="m 21.90712,952.48712 0,14.70251 c 22.79776,0.0881 45.15297,13.41941 55.52427,33.91607 5.92014,9.4701 8.50424,19.4963 8.46508,29.3494 l 13.97853,0 C 99.39958,987.61116 64.75096,952.96254 21.90712,952.48712 z m 0,30.29609 0,13.58873 c 12.33481,0.1803 24.34851,7.39576 29.96194,18.48956 3.1475,5.0348 4.56557,10.3511 4.62239,15.5936 l 13.08746,0 C 69.10872,1004.3426 48.01963,983.2534 21.90712,982.78321 z m 9.35615,27.17739 c -6.1515,0 -11.13827,4.9868 -11.13827,11.1383 0,6.1515 4.98677,11.1383 11.13827,11.1383 6.15149,0 11.13827,-4.9868 11.13827,-11.1383 0,-6.1515 -4.98678,-11.1383 -11.13827,-11.1383 z"
         id="path3836"
         inkscape:connector-curvature="0" />
    </g>
  </g>
</svg>
