<?xml version="1.0" encoding="UTF-8" standalone="no"?>
<!-- Created with Inkscape (http://www.inkscape.org/) -->

<svg
   xmlns:dc="http://purl.org/dc/elements/1.1/"
   xmlns:cc="http://creativecommons.org/ns#"
   xmlns:rdf="http://www.w3.org/1999/02/22-rdf-syntax-ns#"
   xmlns:svg="http://www.w3.org/2000/svg"
   xmlns="http://www.w3.org/2000/svg"
   xmlns:xlink="http://www.w3.org/1999/xlink"
   xmlns:sodipodi="http://sodipodi.sourceforge.net/DTD/sodipodi-0.dtd"
   xmlns:inkscape="http://www.inkscape.org/namespaces/inkscape"
   width="120"
   height="240"
   id="svg2"
   version="1.1"
   inkscape:version="0.48.1 r9760"
   sodipodi:docname="weather.svg"
   inkscape:export-filename="/home/mario/Desktop/apps/weather.png"
   inkscape:export-xdpi="90"
   inkscape:export-ydpi="90">
  <defs
     id="defs4">
    <linearGradient
       id="linearGradient5000"
       inkscape:collect="always">
      <stop
         id="stop5002"
         offset="0"
         style="stop-color:#ffffff;stop-opacity:1;" />
      <stop
         id="stop5004"
         offset="1"
         style="stop-color:#ffffff;stop-opacity:0;" />
    </linearGradient>
    <linearGradient
       inkscape:collect="always"
       id="linearGradient4056">
      <stop
         style="stop-color:#696969;stop-opacity:1;"
         offset="0"
         id="stop4058" />
      <stop
         style="stop-color:#696969;stop-opacity:0;"
         offset="1"
         id="stop4060" />
    </linearGradient>
    <linearGradient
       id="linearGradient3844">
      <stop
         style="stop-color:#d58ee6;stop-opacity:1;"
         offset="0"
         id="stop3846" />
      <stop
         style="stop-color:#701d7f;stop-opacity:1;"
         offset="1"
         id="stop3848" />
    </linearGradient>
    <linearGradient
       id="linearGradient3831">
      <stop
         style="stop-color:#ffffff;stop-opacity:1;"
         offset="0"
         id="stop3833" />
      <stop
         style="stop-color:#e0e0e0;stop-opacity:1;"
         offset="1"
         id="stop3835" />
    </linearGradient>
    <linearGradient
       inkscape:collect="always"
       id="linearGradient3757">
      <stop
         style="stop-color:#ffffff;stop-opacity:1;"
         offset="0"
         id="stop3759" />
      <stop
         style="stop-color:#ffffff;stop-opacity:0;"
         offset="1"
         id="stop3761" />
    </linearGradient>
    <radialGradient
       inkscape:collect="always"
       xlink:href="#linearGradient3757"
       id="radialGradient3892"
       gradientUnits="userSpaceOnUse"
       gradientTransform="matrix(0.05010342,3.0841247,-2.8683403,0.04659782,2779.5941,837.74457)"
       cx="20.007349"
       cy="963.83142"
       fx="20.007349"
       fy="963.83142"
       r="55" />
    <radialGradient
       inkscape:collect="always"
       xlink:href="#linearGradient4056"
       id="radialGradient4062"
       cx="20.424213"
       cy="1039.4114"
       fx="20.424213"
       fy="1039.4114"
       r="47.503922"
       gradientTransform="matrix(2.6525557,-0.01104787,0.00544352,1.3069692,-42.834414,-452.89091)"
       gradientUnits="userSpaceOnUse" />
    <radialGradient
       inkscape:collect="always"
       xlink:href="#linearGradient5000"
       id="radialGradient4997"
       gradientUnits="userSpaceOnUse"
       gradientTransform="matrix(0.05010342,3.0841247,-2.8683403,0.04659782,2779.5941,717.74457)"
       cx="20.007349"
       cy="963.83142"
       fx="20.007349"
       fy="963.83142"
       r="55" />
    <radialGradient
       inkscape:collect="always"
       xlink:href="#linearGradient5000"
       id="radialGradient5055"
       gradientUnits="userSpaceOnUse"
       gradientTransform="matrix(0.05010342,3.0841247,-2.8683403,0.04659782,2779.5941,837.74457)"
       cx="20.007349"
       cy="963.83142"
       fx="20.007349"
       fy="963.83142"
       r="55" />
    <radialGradient
       inkscape:collect="always"
       xlink:href="#linearGradient4056"
       id="radialGradient5057"
       gradientUnits="userSpaceOnUse"
       gradientTransform="matrix(2.6525557,-0.01104787,0.00544352,1.3069692,-42.834414,-332.89091)"
       cx="20.424213"
       cy="1039.4114"
       fx="20.424213"
       fy="1039.4114"
       r="47.503922" />
    <radialGradient
       inkscape:collect="always"
       xlink:href="#linearGradient5000"
       id="radialGradient5072"
       gradientUnits="userSpaceOnUse"
       gradientTransform="matrix(0.05010342,3.0841247,-2.8683403,0.04659782,2779.5941,717.74457)"
       cx="20.007349"
       cy="963.83142"
       fx="20.007349"
       fy="963.83142"
       r="55" />
    <radialGradient
       inkscape:collect="always"
       xlink:href="#linearGradient5000"
       id="radialGradient5076"
       gradientUnits="userSpaceOnUse"
       gradientTransform="matrix(0.05010342,3.0841247,-2.8683403,0.04659782,2779.5941,717.74457)"
       cx="20.007349"
       cy="963.83142"
       fx="20.007349"
       fy="963.83142"
       r="55" />
    <radialGradient
       inkscape:collect="always"
       xlink:href="#linearGradient4056"
       id="radialGradient5078"
       gradientUnits="userSpaceOnUse"
       gradientTransform="matrix(2.6525557,-0.01104787,0.00544352,1.3069692,-42.834414,-452.89091)"
       cx="20.424213"
       cy="1039.4114"
       fx="20.424213"
       fy="1039.4114"
       r="47.503922" />
    <radialGradient
       inkscape:collect="always"
       xlink:href="#linearGradient5000"
       id="radialGradient5093"
       gradientUnits="userSpaceOnUse"
       gradientTransform="matrix(0.05010342,3.0841247,-2.8683403,0.04659782,2779.5941,717.74457)"
       cx="59.09182"
       cy="964.26764"
       fx="59.09182"
       fy="964.26764"
       r="55" />
    <radialGradient
       inkscape:collect="always"
       xlink:href="#linearGradient4056"
       id="radialGradient5097"
       gradientUnits="userSpaceOnUse"
       gradientTransform="matrix(2.6525557,-0.01104787,0.00544352,1.3069692,-42.834414,-330.41604)"
       cx="20.424213"
       cy="1039.4114"
       fx="20.424213"
       fy="1039.4114"
       r="47.503922" />
    <radialGradient
       inkscape:collect="always"
       xlink:href="#linearGradient4056"
       id="radialGradient5115"
       gradientUnits="userSpaceOnUse"
       gradientTransform="matrix(2.6525557,-0.01104787,0.00544352,1.3069692,-42.834414,-452.89091)"
       cx="20.424213"
       cy="1039.4114"
       fx="20.424213"
       fy="1039.4114"
       r="47.503922" />
    <radialGradient
       inkscape:collect="always"
       xlink:href="#linearGradient4056"
       id="radialGradient5133"
       gradientUnits="userSpaceOnUse"
       gradientTransform="matrix(2.6525557,-0.01104787,0.00544352,1.3069692,-42.834414,-452.89091)"
       cx="20.424213"
       cy="1039.4114"
       fx="20.424213"
       fy="1039.4114"
       r="47.503922" />
    <radialGradient
       inkscape:collect="always"
       xlink:href="#linearGradient5000"
       id="radialGradient5282"
       gradientUnits="userSpaceOnUse"
       gradientTransform="matrix(0.05010342,3.0841247,-2.8683403,0.04659782,2779.5941,720.13458)"
       cx="59.09182"
       cy="964.26764"
       fx="59.09182"
       fy="964.26764"
       r="55" />
    <radialGradient
       inkscape:collect="always"
       xlink:href="#linearGradient5000"
       id="radialGradient5284"
       gradientUnits="userSpaceOnUse"
       gradientTransform="matrix(0.05010342,3.0841247,-2.8683403,0.04659782,2779.5941,720.13458)"
       cx="20.007349"
       cy="963.83142"
       fx="20.007349"
       fy="963.83142"
       r="55" />
    <radialGradient
       inkscape:collect="always"
       xlink:href="#linearGradient4056"
       id="radialGradient5286"
       gradientUnits="userSpaceOnUse"
       gradientTransform="matrix(2.6525557,-0.01104787,0.00544352,1.3069692,-42.83442,-329.8037)"
       cx="20.424213"
       cy="1039.4114"
       fx="20.424213"
       fy="1039.4114"
       r="47.503922" />
    <radialGradient
       inkscape:collect="always"
       xlink:href="#linearGradient5000"
       id="radialGradient5288"
       gradientUnits="userSpaceOnUse"
       gradientTransform="matrix(0.05010342,3.0841247,-2.8683403,0.04659782,2779.5941,717.74457)"
       cx="59.09182"
       cy="964.26764"
       fx="59.09182"
       fy="964.26764"
       r="55" />
    <radialGradient
       inkscape:collect="always"
       xlink:href="#linearGradient5000"
       id="radialGradient5290"
       gradientUnits="userSpaceOnUse"
       gradientTransform="matrix(0.05010342,3.0841247,-2.8683403,0.04659782,2779.5941,717.74457)"
       cx="20.007349"
       cy="963.83142"
       fx="20.007349"
       fy="963.83142"
       r="55" />
    <radialGradient
       inkscape:collect="always"
       xlink:href="#linearGradient4056"
       id="radialGradient5292"
       gradientUnits="userSpaceOnUse"
       gradientTransform="matrix(2.6525557,-0.01104787,0.00544352,1.3069692,-42.834414,-330.41604)"
       cx="20.424213"
       cy="1039.4114"
       fx="20.424213"
       fy="1039.4114"
       r="47.503922" />
    <radialGradient
       inkscape:collect="always"
       xlink:href="#linearGradient5000"
       id="radialGradient5305"
       gradientUnits="userSpaceOnUse"
       gradientTransform="matrix(0.05010342,3.0841247,-2.8683403,0.04659782,2779.5941,717.74457)"
       cx="20.007349"
       cy="963.83142"
       fx="20.007349"
       fy="963.83142"
       r="55" />
    <radialGradient
       inkscape:collect="always"
       xlink:href="#linearGradient5000"
       id="radialGradient5317"
       gradientUnits="userSpaceOnUse"
       gradientTransform="matrix(0.05010342,3.0841247,-2.8683403,0.04659782,2779.5941,717.74457)"
       cx="59.09182"
       cy="964.26764"
       fx="59.09182"
       fy="964.26764"
       r="55" />
    <radialGradient
       inkscape:collect="always"
       xlink:href="#linearGradient5000"
       id="radialGradient5389"
       gradientUnits="userSpaceOnUse"
       gradientTransform="matrix(0.05010342,3.0841247,-2.8683403,0.04659782,2779.5941,717.74458)"
       cx="20.007349"
       cy="963.83142"
       fx="20.007349"
       fy="963.83142"
       r="55" />
    <radialGradient
       inkscape:collect="always"
       xlink:href="#linearGradient5000"
       id="radialGradient5401"
       gradientUnits="userSpaceOnUse"
       gradientTransform="matrix(0.05010342,3.0841247,-2.8683403,0.04659782,2779.5941,717.74458)"
       cx="59.09182"
       cy="964.26764"
       fx="59.09182"
       fy="964.26764"
       r="55" />
  </defs>
  <sodipodi:namedview
     id="base"
     pagecolor="#ffffff"
     bordercolor="#666666"
     borderopacity="1.0"
     inkscape:pageopacity="0.0"
     inkscape:pageshadow="2"
     inkscape:zoom="2.8284271"
     inkscape:cx="62.112829"
     inkscape:cy="116.4456"
     inkscape:document-units="px"
     inkscape:current-layer="layer1"
     showgrid="false"
     inkscape:window-width="1766"
     inkscape:window-height="832"
     inkscape:window-x="136"
     inkscape:window-y="118"
     inkscape:window-maximized="0" />
  <metadata
     id="metadata7">
    <rdf:RDF>
      <cc:Work
         rdf:about="">
        <dc:format>image/svg+xml</dc:format>
        <dc:type
           rdf:resource="http://purl.org/dc/dcmitype/StillImage" />
        <dc:title></dc:title>
      </cc:Work>
    </rdf:RDF>
  </metadata>
  <g
     inkscape:label="Ebene 1"
     inkscape:groupmode="layer"
     id="layer1"
     transform="translate(0,-812.36218)">
    <path
       inkscape:connector-curvature="0"
       id="path5244"
       d="m 53.075352,956.77889 c -6.095655,0.64285 -11.182327,4.58835 -14.040411,10.10398 -3.009186,-1.79582 -6.503734,-2.63353 -10.171849,-2.24668 -9.891074,1.04313 -17.180798,10.75372 -16.293957,21.70702 0.751718,9.28448 7.142646,16.44399 15.096967,17.78319 2.372275,8.2901 9.506229,13.9348 17.436453,13.0985 2.35142,-0.248 4.539125,-1.0551 6.486581,-2.2717 3.619805,4.7101 9.637972,7.4986 16.231266,6.8033 8.890587,-0.9376 15.80194,-7.8466 16.777169,-16.1295 2.283128,0.8399 4.780661,1.1917 7.377101,0.9178 9.303478,-0.9811 16.240168,-9.486 15.470988,-18.98629 -0.55556,-6.86174 -4.96602,-12.35072 -10.88037,-14.51152 -0.0046,-0.35338 -0.02656,-0.71955 -0.05553,-1.07656 -0.678703,-8.38264 -7.891307,-14.46595 -16.11754,-13.59841 -4.577512,0.48276 -8.505478,3.0421 -10.969727,6.64114 -3.636039,-5.5806 -9.743328,-8.93071 -16.347119,-8.23427 z"
       style="fill:#ffffff;fill-opacity:1;stroke:#000000" />
    <path
       sodipodi:nodetypes="sssssssssssssssssssssssssssssssssssssssssss"
       inkscape:connector-curvature="0"
       id="path5248"
       d="m 107.03829,968.47812 c 0,1.06173 -9.121088,1.90772 -9.239684,2.92274 -0.06036,0.51665 12.210204,5.7419 -0.378977,1.47389 -0.477634,-0.16193 -0.322606,0.95302 -0.517168,1.41301 -0.389125,0.92 8.327169,8.2466 7.774399,9.06479 -0.55276,0.8182 -10.37458,-4.872 -11.070369,-4.17621 -0.695788,0.69579 2.431152,10.07566 1.612953,10.62843 -0.818198,0.55276 -5.581535,-7.72159 -6.501528,-7.33246 -0.459997,0.19456 0.129231,5.4939 -0.352349,5.64369 -0.481581,0.14979 -2.033968,-4.84998 -2.534555,-4.74755 -1.001173,0.20487 -1.507451,8.26741 -2.56919,8.26741 -1.061738,0 -2.628678,-8.06254 -3.629851,-8.26741 -0.500586,-0.10243 -2.583304,5.958 -3.064884,5.80821 -0.48158,-0.14979 0.637977,-6.50979 0.177981,-6.70435 -0.919993,-0.38913 -6.125272,6.38262 -6.94347,5.82986 -0.818199,-0.55277 2.750683,-8.43004 2.054894,-9.12583 -0.347894,-0.34789 -3.596015,2.11605 -3.909441,1.73626 -0.313427,-0.37978 2.30784,-3.6033 2.031457,-4.01239 -0.552764,-0.8182 -8.630259,1.75469 -9.019384,0.8347 -0.389128,-0.91999 6.910124,-5.33288 6.705254,-6.33405 -0.102435,-0.50059 0.270256,-1.65643 -0.233056,-1.52705 -10.866384,2.79336 -0.149666,-1.02009 -0.07941,-1.57247 0.133976,-1.05325 -9.349965,-2.00996 -9.145102,-3.01113 0.204871,-1.00118 9.52264,-0.81786 9.911764,-1.73786 0.194562,-0.45999 -4.251618,-3.95795 -3.904372,-4.70315 0.347246,-0.74519 5.487917,1.26237 5.764299,0.85327 0.552765,-0.81819 -6.684368,-8.03269 -5.988579,-8.72848 0.695788,-0.69579 9.324498,5.12713 10.142697,4.57437 0.4091,-0.27639 -1.73105,-5.39496 -1.295214,-5.63172 0.435836,-0.23676 3.447659,4.40829 3.907656,4.21373 0.919993,-0.38912 -3.329182,-10.59077 -2.328009,-10.79564 1.001173,-0.20487 7.259328,9.70554 8.314433,9.58704 0.537977,-0.0604 1.930062,-7.40726 1.572471,0.0794 -0.02479,0.51908 1.026462,0.13062 1.527049,0.23305 1.001173,0.20487 4.530172,-7.09438 5.450166,-6.70525 0.919992,0.38912 -0.76902,8.46662 0.04918,9.01938 0.409099,0.27638 3.80939,-3.7591 4.189175,-3.44567 0.379785,0.31343 -2.260934,4.97576 -1.913041,5.32365 0.695788,0.69579 9.280175,-7.82284 9.832935,-7.00464 0.55276,0.8182 -6.92609,10.97323 -6.536965,11.89322 0.194562,0.46 5.405515,0.31271 5.555305,0.79429 0.14979,0.48158 -4.761595,1.59203 -4.65916,2.09261 0.204869,1.00118 9.23968,2.21456 9.23968,3.2763 z"
       style="fill:#ffff11;fill-opacity:1;stroke:#000000;stroke-width:0.75;stroke-opacity:1" />
    <path
       inkscape:connector-curvature="0"
       id="path5250"
       d="m 74.941307,969.71453 c -0.327722,0.77059 -0.53125,1.59764 -0.53125,2.46875 0,3.90523 3.620286,7.09373 8.0625,7.09373 4.369923,0 7.91667,-3.0888 8.03125,-6.90623 -1.168211,2.63717 -4.086963,4.50003 -7.5,4.50003 -4.442214,0 -8.0625,-3.15729 -8.0625,-7.06253 0,-0.0316 -4.7e-4,-0.0623 0,-0.0937 z"
       style="fill:#000000;fill-opacity:1;stroke:#000000;stroke-width:0.25;stroke-opacity:1" />
    <path
       inkscape:connector-curvature="0"
       id="path5252"
       d="m 74.78125,960.94093 c -0.0043,0.0422 -0.02924,0.0831 -0.03125,0.125 -0.04544,0.20164 -0.0625,0.41182 -0.0625,0.625 0,1.91141 1.771064,3.46875 3.96875,3.46875 1.879643,0 3.459336,-1.12986 3.875,-2.65625 0.0053,-0.0196 -0.0048,-0.0427 0,-0.0625 l -0.25,-0.0312 c -0.705533,0.95719 -1.935132,1.56245 -3.34375,1.56245 -1.9982,0 -3.652235,-1.26884 -3.9375,-2.9375 0.0067,-0.0129 0.0244,-0.0185 0.03125,-0.0312 l -0.25,-0.0625 z"
       style="fill:#000000;fill-opacity:1;stroke:#000000;stroke-width:0.25;stroke-opacity:1" />
    <path
       style="fill:#000000;fill-opacity:1;stroke:#000000;stroke-width:0.25;stroke-opacity:1"
       d="m 89.614404,960.48936 c -1.522352,0.0959 -2.838859,1.00166 -3.25,2.375 -0.06756,0.22566 -0.114058,0.45971 -0.125,0.6875 -0.04544,0.20164 -0.0625,0.41182 -0.0625,0.625 0,1.91141 1.771064,3.46875 3.96875,3.46875 1.879643,0 3.459336,-1.12986 3.875,-2.65625 0.05442,-0.19985 0.08087,-0.4137 0.09375,-0.625 7.49e-4,-0.0215 -3e-4,-0.0411 0,-0.0625 0.02198,-1.56958 -1.149722,-3.08979 -2.9375,-3.625 -0.526341,-0.15757 -1.055049,-0.21948 -1.5625,-0.1875 z m -0.09375,1.21875 c 0.50704,-0.0306 1.036159,0.0299 1.5625,0.1875 1.463123,0.43802 2.519342,1.50712 2.84375,2.75 -0.66947,1.09142 -1.977992,1.8125 -3.5,1.8125 -1.9982,0 -3.652235,-1.26884 -3.9375,-2.9375 0.5555,-1.07144 1.714112,-1.73299 3.03125,-1.8125 z"
       id="path5254"
       inkscape:connector-curvature="0" />
    <path
       transform="translate(135.58773,906.01893)"
       d="m -44.636117,58.172352 c 0,0.561379 -0.474874,1.016466 -1.06066,1.016466 -0.585787,0 -1.06066,-0.455087 -1.06066,-1.016466 0,-0.561379 0.474873,-1.016466 1.06066,-1.016466 0.585786,0 1.06066,0.455087 1.06066,1.016466 z"
       sodipodi:ry="1.016466"
       sodipodi:rx="1.0606601"
       sodipodi:cy="58.172352"
       sodipodi:cx="-45.696777"
       id="path5256"
       style="fill:#000000;fill-opacity:1;stroke:#000000;stroke-width:0.25;stroke-opacity:1"
       sodipodi:type="arc" />
    <g
       transform="translate(0,-123.0872)"
       id="g5264">
      <path
         inkscape:connector-curvature="0"
         id="path5266"
         d="m 53.075352,959.86609 c -6.095655,0.64285 -11.182327,4.58835 -14.040411,10.10398 -3.009186,-1.79582 -6.503734,-2.63353 -10.171849,-2.24668 -9.891074,1.04313 -17.180798,10.75372 -16.293957,21.70702 0.751718,9.28448 7.142646,16.44399 15.096967,17.78319 2.372275,8.2901 9.506229,13.9348 17.436453,13.0985 2.35142,-0.248 4.539125,-1.0551 6.486581,-2.2717 3.619805,4.7101 9.637972,7.4986 16.231266,6.8033 8.890587,-0.9376 15.80194,-7.8466 16.777169,-16.1295 2.283128,0.8399 4.780661,1.1917 7.377101,0.9178 9.303478,-0.9811 16.240168,-9.486 15.470988,-18.98629 -0.55556,-6.86174 -4.96602,-12.35072 -10.88037,-14.51152 -0.0046,-0.35338 -0.02656,-0.71955 -0.05553,-1.07656 -0.678703,-8.38264 -7.891307,-14.46595 -16.11754,-13.59841 -4.577512,0.48276 -8.505478,3.0421 -10.969727,6.64114 -3.636039,-5.5806 -9.743328,-8.93071 -16.347119,-8.23427 z"
         style="fill:#ffffff;fill-opacity:1;stroke:#000000" />
      <path
         style="opacity:0.14242422;fill:url(#radialGradient5286);fill-opacity:1;stroke:none"
         d="m 53.075352,959.86609 c -6.095655,0.64285 -11.182327,4.58835 -14.040411,10.10398 -3.009186,-1.79582 -6.503734,-2.63353 -10.171849,-2.24668 -9.891074,1.04313 -17.180798,10.75372 -16.293957,21.70702 0.751718,9.28448 7.142646,16.44399 15.096967,17.78319 2.372275,8.2901 9.506229,13.9348 17.436453,13.0985 2.35142,-0.248 4.539125,-1.0551 6.486581,-2.2717 3.619805,4.7101 9.637972,7.4986 16.231266,6.8033 8.890587,-0.9376 15.80194,-7.8466 16.777169,-16.1295 2.283128,0.8399 4.780661,1.1917 7.377101,0.9178 9.303478,-0.9811 16.240168,-9.486 15.470988,-18.98629 -0.55556,-6.86174 -4.96602,-12.35072 -10.88037,-14.51152 -0.0046,-0.35338 -0.02656,-0.71955 -0.05553,-1.07656 -0.678703,-8.38264 -7.891307,-14.46595 -16.11754,-13.59841 -4.577512,0.48276 -8.505478,3.0421 -10.969727,6.64114 -3.636039,-5.5806 -9.743328,-8.93071 -16.347119,-8.23427 z"
         id="path5268"
         inkscape:connector-curvature="0" />
    </g>
    <path
       style="fill:#fcfc00;fill-opacity:1;stroke:#000000;stroke-width:0.75;stroke-opacity:1"
       d="m 107.03829,848.47812 c 0,1.06173 -9.121088,1.90772 -9.239684,2.92274 -0.06036,0.51665 12.210204,5.7419 -0.378977,1.47389 -0.477634,-0.16193 -0.322606,0.95302 -0.517168,1.41301 -0.389125,0.92 8.327169,8.2466 7.774399,9.06479 -0.55276,0.8182 -10.37458,-4.872 -11.070369,-4.17621 -0.695788,0.69579 2.431152,10.07566 1.612953,10.62843 -0.818198,0.55276 -5.581535,-7.72159 -6.501528,-7.33246 -0.459997,0.19456 0.129231,5.4939 -0.352349,5.64369 -0.481581,0.14979 -2.033968,-4.84998 -2.534555,-4.74755 -1.001173,0.20487 -1.507451,8.26741 -2.56919,8.26741 -1.061738,0 -2.628678,-8.06254 -3.629851,-8.26741 -0.500586,-0.10243 -2.583304,5.958 -3.064884,5.80821 -0.48158,-0.14979 0.637977,-6.50979 0.177981,-6.70435 -0.919993,-0.38913 -6.125272,6.38262 -6.94347,5.82986 -0.818199,-0.55277 2.750683,-8.43004 2.054894,-9.12583 -0.347894,-0.34789 -3.596015,2.11605 -3.909441,1.73626 -0.313427,-0.37978 2.30784,-3.6033 2.031457,-4.01239 -0.552764,-0.8182 -8.630259,1.75469 -9.019384,0.8347 -0.389128,-0.91999 6.910124,-5.33288 6.705254,-6.33405 -0.102435,-0.50059 0.270256,-1.65643 -0.233056,-1.52705 -10.866384,2.79336 -0.149666,-1.02009 -0.07941,-1.57247 0.133976,-1.05325 -9.349965,-2.00996 -9.145102,-3.01113 0.204871,-1.00118 9.52264,-0.81786 9.911764,-1.73786 0.194562,-0.45999 -4.251618,-3.95795 -3.904372,-4.70315 0.347246,-0.74519 5.487917,1.26237 5.764299,0.85327 0.552765,-0.81819 -6.684368,-8.03269 -5.988579,-8.72848 0.695788,-0.69579 9.324498,5.12713 10.142697,4.57437 0.4091,-0.27639 -1.73105,-5.39496 -1.295214,-5.63172 0.435836,-0.23676 3.447659,4.40829 3.907656,4.21373 0.919993,-0.38912 -3.329182,-10.59077 -2.328009,-10.79564 1.001173,-0.20487 7.259328,9.70554 8.314433,9.58704 0.537977,-0.0604 1.930062,-7.40726 1.572471,0.0794 -0.02479,0.51908 1.026462,0.13062 1.527049,0.23305 1.001173,0.20487 4.530172,-7.09438 5.450166,-6.70525 0.919992,0.38912 -0.76902,8.46662 0.04918,9.01938 0.409099,0.27638 3.80939,-3.7591 4.189175,-3.44567 0.379785,0.31343 -2.260934,4.97576 -1.913041,5.32365 0.695788,0.69579 9.280175,-7.82284 9.832935,-7.00464 0.55276,0.8182 -6.92609,10.97323 -6.536965,11.89322 0.194562,0.46 5.405515,0.31271 5.555305,0.79429 0.14979,0.48158 -4.761595,1.59203 -4.65916,2.09261 0.204869,1.00118 9.23968,2.21456 9.23968,3.2763 z"
       id="path5270"
       inkscape:connector-curvature="0"
       sodipodi:nodetypes="sssssssssssssssssssssssssssssssssssssssssss" />
    <path
       style="fill:#000000;fill-opacity:1;stroke:#000000;stroke-width:0.25;stroke-opacity:1"
       d="m 74.941307,849.71453 c -0.327722,0.77059 -0.53125,1.59764 -0.53125,2.46875 0,3.90523 3.620286,7.09373 8.0625,7.09373 4.369923,0 7.91667,-3.0888 8.03125,-6.90623 -1.168211,2.63717 -4.086963,4.50003 -7.5,4.50003 -4.442214,0 -8.0625,-3.15729 -8.0625,-7.06253 0,-0.0316 -4.7e-4,-0.0623 0,-0.0937 z"
       id="path5272"
       inkscape:connector-curvature="0" />
    <path
       style="fill:#000000;fill-opacity:1;stroke:#000000;stroke-width:0.25;stroke-opacity:1"
       d="m 78.123919,838.01449 c -1.522352,0.0959 -2.838859,1.00166 -3.25,2.375 -0.06756,0.22566 -0.114058,0.45971 -0.125,0.6875 -0.04544,0.20164 -0.0625,0.41182 -0.0625,0.625 0,1.91141 1.771064,3.46875 3.96875,3.46875 1.879643,0 3.459336,-1.12986 3.875,-2.65625 0.05442,-0.19985 0.08087,-0.4137 0.09375,-0.625 7.49e-4,-0.0215 -3e-4,-0.0411 0,-0.0625 0.02198,-1.56958 -1.149722,-3.08979 -2.9375,-3.625 -0.526341,-0.15757 -1.055049,-0.21948 -1.5625,-0.1875 z m -0.09375,1.21875 c 0.50704,-0.0306 1.036159,0.0299 1.5625,0.1875 1.463123,0.43802 2.519342,1.50712 2.84375,2.75 -0.66947,1.09142 -1.977992,1.8125 -3.5,1.8125 -1.9982,0 -3.652235,-1.26884 -3.9375,-2.9375 0.5555,-1.07144 1.714112,-1.73299 3.03125,-1.8125 z"
       id="path5274"
       inkscape:connector-curvature="0" />
    <path
       inkscape:connector-curvature="0"
       id="path5276"
       d="m 89.614404,840.48936 c -1.522352,0.0959 -2.838859,1.00166 -3.25,2.375 -0.06756,0.22566 -0.114058,0.45971 -0.125,0.6875 -0.04544,0.20164 -0.0625,0.41182 -0.0625,0.625 0,1.91141 1.771064,3.46875 3.96875,3.46875 1.879643,0 3.459336,-1.12986 3.875,-2.65625 0.05442,-0.19985 0.08087,-0.4137 0.09375,-0.625 7.49e-4,-0.0215 -3e-4,-0.0411 0,-0.0625 0.02198,-1.56958 -1.149722,-3.08979 -2.9375,-3.625 -0.526341,-0.15757 -1.055049,-0.21948 -1.5625,-0.1875 z m -0.09375,1.21875 c 0.50704,-0.0306 1.036159,0.0299 1.5625,0.1875 1.463123,0.43802 2.519342,1.50712 2.84375,2.75 -0.66947,1.09142 -1.977992,1.8125 -3.5,1.8125 -1.9982,0 -3.652235,-1.26884 -3.9375,-2.9375 0.5555,-1.07144 1.714112,-1.73299 3.03125,-1.8125 z"
       style="fill:#000000;fill-opacity:1;stroke:#000000;stroke-width:0.25;stroke-opacity:1" />
    <path
       sodipodi:type="arc"
       style="fill:#000000;fill-opacity:1;stroke:#000000;stroke-width:0.25;stroke-opacity:1"
       id="path5278"
       sodipodi:cx="-45.696777"
       sodipodi:cy="58.172352"
       sodipodi:rx="1.0606601"
       sodipodi:ry="1.016466"
       d="m -44.636117,58.172352 c 0,0.561379 -0.474874,1.016466 -1.06066,1.016466 -0.585787,0 -1.06066,-0.455087 -1.06066,-1.016466 0,-0.561379 0.474873,-1.016466 1.06066,-1.016466 0.585786,0 1.06066,0.455087 1.06066,1.016466 z"
       transform="translate(135.58773,786.01893)" />
    <path
       transform="translate(124.62757,783.54406)"
       d="m -44.636117,58.172352 c 0,0.561379 -0.474874,1.016466 -1.06066,1.016466 -0.585787,0 -1.06066,-0.455087 -1.06066,-1.016466 0,-0.561379 0.474873,-1.016466 1.06066,-1.016466 0.585786,0 1.06066,0.455087 1.06066,1.016466 z"
       sodipodi:ry="1.016466"
       sodipodi:rx="1.0606601"
       sodipodi:cy="58.172352"
       sodipodi:cx="-45.696777"
       id="path5280"
       style="fill:#000000;fill-opacity:1;stroke:#000000;stroke-width:0.25;stroke-opacity:1"
       sodipodi:type="arc" />
  </g>
</svg>
